<svg xmlns="http://www.w3.org/2000/svg" viewBox="0 0 24 30" fill="none" x="0px" y="0px"><path fill-rule="evenodd" clip-rule="evenodd" d="M12 1C10.3431 1 9 2.34315 9 4V5C9 6.65685 10.3431 8 12 8C13.6569 8 15 6.65685 15 5V4C15 2.34315 13.6569 1 12 1ZM17 6C17 4.34315 18.3431 3 20 3C21.6569 3 23 4.34315 23 6V7C23 8.65685 21.6569 10 20 10C18.3431 10 17 8.65685 17 7V6ZM3 17.875C3 13.5258 6.52576 10 10.875 10H13.125C17.4742 10 21 13.5258 21 17.875C21 20.7055 18.7055 23 15.875 23H8.125C5.29454 23 3 20.7055 3 17.875ZM13 13.5C13 13.2239 12.7761 13 12.5 13L11.5 13C11.2238 13 11 13.2238 11 13.5V15.5L9 15.5C8.72386 15.5 8.5 15.7239 8.5 16V17C8.5 17.2762 8.72386 17.5 9 17.5L11 17.5L11 19.5C11 19.7761 11.2239 20 11.5 20H12.5C12.7761 20 13 19.7761 13 19.5L13 17.5L15 17.5C15.2761 17.5 15.5 17.2762 15.5 17V16C15.5 15.7239 15.2761 15.5 15 15.5L13 15.5V13.5ZM1 6C1 4.34315 2.34315 3 4 3C5.65685 3 7 4.34315 7 6V7C7 8.65685 5.65685 10 4 10C2.34315 10 1 8.65685 1 7V6Z" fill="black"/></svg>